<?xml version="1.0" standalone="no"?>
<!DOCTYPE svg PUBLIC "-//W3C//DTD SVG 20010904//EN"
 "http://www.w3.org/TR/2001/REC-SVG-20010904/DTD/svg10.dtd">
<svg version="1.0" xmlns="http://www.w3.org/2000/svg"
 width="700.000000pt" height="700.000000pt" viewBox="0 0 700.000000 700.000000"
 preserveAspectRatio="xMidYMid meet">
<metadata>
Created by potrace 1.11, written by Peter Selinger 2001-2013
</metadata>
<g transform="translate(0.000000,700.000000) scale(0.100000,-0.100000)"
fill="#000000" stroke="none">
<path d="M0 3500 l0 -3500 3500 0 3500 0 0 3500 0 3500 -3500 0 -3500 0 0
-3500z m3622 2611 c13 -5 64 -46 113 -91 381 -347 1001 -570 1679 -605 117 -7
131 -9 153 -31 l23 -23 0 -1113 c0 -1239 2 -1188 -69 -1398 -83 -247 -210
-487 -389 -734 -346 -480 -835 -920 -1262 -1136 -87 -44 -257 -110 -283 -110
-30 0 -202 67 -305 119 -588 296 -1245 898 -1600 1467 -76 122 -177 329 -212
433 -62 185 -60 138 -60 1357 l0 1115 23 23 c21 21 35 23 172 30 722 34 1481
289 1875 631 85 73 102 81 142 66z"/>
<path d="M3475 5529 c-368 -209 -981 -389 -1569 -460 -81 -10 -104 -16 -123
-35 l-23 -23 0 -922 c0 -901 0 -925 21 -998 24 -88 116 -283 185 -391 281
-439 773 -949 1214 -1256 169 -119 360 -224 405 -224 30 0 157 62 258 127 526
337 1143 1077 1340 1608 58 156 57 121 57 1126 0 1071 10 971 -102 984 -110
12 -340 53 -475 84 -370 85 -699 214 -945 368 -120 75 -133 75 -243 12z m189
-163 c342 -211 835 -377 1346 -453 l55 -8 3 -853 c2 -952 5 -913 -68 -1095
-202 -505 -779 -1180 -1259 -1472 -158 -96 -143 -94 -241 -39 -525 290 -1249
1032 -1490 1527 -85 175 -80 111 -80 1078 l0 856 73 7 c117 12 406 63 575 102
366 84 708 213 932 348 41 25 77 46 79 46 2 0 36 -20 75 -44z"/>
<path d="M3529 4861 c-23 -19 -24 -25 -27 -180 -4 -179 4 -164 -87 -176 -193
-25 -413 -133 -513 -253 -85 -102 -118 -198 -109 -328 7 -113 45 -194 133
-281 99 -98 298 -185 512 -226 l62 -12 0 -393 0 -394 -42 7 c-259 40 -464 176
-509 336 -22 81 -93 115 -140 68 -19 -19 -21 -30 -16 -83 6 -74 35 -143 88
-214 100 -132 343 -252 562 -278 l57 -7 0 -153 c0 -141 2 -156 20 -174 29 -29
99 -28 128 3 21 22 22 33 22 180 0 179 -14 157 112 177 390 62 654 337 598
622 -32 167 -139 283 -346 376 -59 27 -221 73 -336 97 l-28 5 0 391 0 391 57
-7 c64 -8 184 -45 246 -76 127 -65 220 -161 252 -262 20 -62 46 -87 90 -87
120 0 82 219 -63 363 -113 111 -305 201 -494 230 l-83 13 -3 149 c-2 137 -4
151 -24 172 -27 29 -86 31 -119 4z m-29 -892 l0 -391 -36 7 c-155 29 -327 102
-406 174 -216 194 -59 480 319 582 38 10 80 18 96 18 l27 1 0 -391z m370 -635
c230 -76 339 -181 340 -327 0 -32 -7 -74 -15 -94 -56 -133 -257 -253 -482
-288 l-43 -7 0 382 0 382 48 -7 c26 -3 94 -22 152 -41z"/>
</g>
</svg>
